<?xml version="1.0" encoding="UTF-8" standalone="no"?>
<!DOCTYPE svg PUBLIC "-//W3C//DTD SVG 1.1//EN" "http://www.w3.org/Graphics/SVG/1.1/DTD/svg11.dtd">
<svg width="100%" height="100%" viewBox="0 0 75 75" version="1.1" xmlns="http://www.w3.org/2000/svg" xmlns:xlink="http://www.w3.org/1999/xlink" xml:space="preserve" xmlns:serif="http://www.serif.com/" style="fill-rule:evenodd;clip-rule:evenodd;stroke-linejoin:round;stroke-miterlimit:2;">
    <g transform="matrix(1,0,0,1,-18.9229,-20.8437)">
        <g transform="matrix(1.03949,0,0,0.750017,4.45014,20.8435)">
            <path d="M25.027,53.824C31.711,53.824 38.32,54.129 45,54.332C53.988,54.605 62.531,56.476 70.297,61.219C70.422,61.293 70.629,61.226 71.051,61.226C67.223,53.59 58.555,47.492 50.528,45.121C37.141,41.164 19.317,17.426 13.923,4.871C26.536,4.871 44.415,11.942 54.107,20.371C65.142,29.973 64.169,46.601 69.568,52.578C66.837,29.766 69.677,21.898 75.974,0C87.673,20.73 89.724,30.965 79.404,52.215C77.865,55.383 77.361,58.348 78.455,61.805C81.576,71.665 86.533,86.653 85.478,96.864C84.873,102.677 82.58,99.325 82.611,95.489C82.228,89.282 81.333,83.192 79.283,77.274C78.478,74.95 77.4,73.294 73.787,73.489C66.38,73.887 60.057,75.329 52.369,74.762C44.775,74.204 23.959,56.442 25.029,53.821L25.027,53.824Z" style="fill:rgb(168,140,111);fill-rule:nonzero;"/>
        </g>
    </g>
</svg>
