<?xml version="1.0" encoding="UTF-8" standalone="no"?>
<!DOCTYPE svg PUBLIC "-//W3C//DTD SVG 1.1//EN" "http://www.w3.org/Graphics/SVG/1.1/DTD/svg11.dtd">
<svg width="100%" height="100%" viewBox="0 0 480 542" version="1.1" xmlns="http://www.w3.org/2000/svg" xmlns:xlink="http://www.w3.org/1999/xlink" xml:space="preserve" xmlns:serif="http://www.serif.com/" style="fill-rule:evenodd;clip-rule:evenodd;stroke-linejoin:round;stroke-miterlimit:2;">
    <g transform="matrix(1,0,0,1,-20.4761,-45.6962)">
        <g transform="matrix(1,0,0,1,-1171.01,-1387.94)">
            <g id="MM-logo-Image" serif:id="MM logo Image" transform="matrix(4.16667,0,0,4.16667,-47.4399,-86.0025)">
                <g transform="matrix(1,0,0,1,836.7,433.24)">
                    <path d="M-429.353,-63.473L-456.87,-63.473C-458.28,-63.473 -459.689,-63.465 -461.099,-63.477C-461.532,-63.481 -461.718,-63.357 -461.92,-62.9C-463.338,-59.709 -464.827,-56.549 -466.298,-53.381C-467.547,-50.692 -468.821,-48.014 -470.055,-45.318C-472.422,-40.144 -474.778,-34.963 -477.122,-29.777C-478.016,-27.801 -478.849,-25.799 -479.736,-23.82C-480.367,-22.411 -481.042,-21.021 -481.791,-19.423C-482.616,-21.286 -483.349,-22.973 -484.107,-24.648C-486.467,-29.859 -488.83,-35.068 -491.206,-40.271C-492.364,-42.808 -493.565,-45.325 -494.729,-47.858C-497.008,-52.817 -499.282,-57.778 -501.536,-62.748C-501.791,-63.31 -502.112,-63.489 -502.732,-63.488C-512.958,-63.466 -523.186,-63.473 -533.413,-63.473L-534.343,-63.473L-534.343,41.102L-499.443,41.102L-499.443,14.961C-499.375,14.944 -499.306,14.926 -499.238,14.909C-493.48,27.041 -487.723,39.173 -481.908,51.429C-476.104,39.198 -470.36,27.091 -464.615,14.985C-464.535,15.005 -464.455,15.027 -464.375,15.047L-464.375,41.12L-429.299,41.12M-425.748,-67.041L-425.672,44.686L-467.955,44.686L-467.955,31.106C-468.023,31.087 -468.092,31.068 -468.161,31.049C-472.708,40.632 -477.256,50.215 -481.904,60.01C-486.513,50.305 -491.034,40.788 -495.554,31.27C-495.596,31.273 -495.637,31.277 -495.678,31.281L-495.678,44.707L-537.918,44.707L-537.918,-67.068L-536.899,-67.068C-524.783,-67.068 -512.667,-67.06 -500.55,-67.087C-499.707,-67.089 -499.348,-66.848 -499.023,-66.042C-498.254,-64.14 -497.293,-62.315 -496.432,-60.449C-494.086,-55.36 -491.751,-50.265 -489.413,-45.172C-487.073,-40.08 -484.735,-34.987 -482.394,-29.895C-482.198,-29.469 -481.978,-29.054 -481.721,-28.536C-481.099,-29.882 -480.5,-31.149 -479.926,-32.427C-479.001,-34.485 -478.115,-36.562 -477.174,-38.612C-474.665,-44.081 -472.134,-49.539 -469.615,-55.002C-467.871,-58.787 -466.127,-62.572 -464.396,-66.363C-464.179,-66.839 -463.932,-67.084 -463.343,-67.083C-450.987,-67.063 -438.631,-67.068 -426.275,-67.067C-426.127,-67.067 -425.98,-67.052 -425.748,-67.041Z" style="fill:rgb(35,31,32);fill-rule:nonzero;stroke:rgb(35,31,32);stroke-width:2.88px;"/>
                </g>
                <g transform="matrix(1,0,0,1,309.392,472.988)">
                    <path d="M0,-96.006L0,-5.642L20.773,-5.642C20.787,-5.826 20.807,-5.968 20.806,-6.111C20.748,-16.436 20.697,-26.761 20.622,-37.088C20.604,-39.533 20.515,-41.978 20.446,-44.423C20.397,-46.179 20.313,-47.935 20.272,-49.691C20.2,-52.766 20.157,-55.84 20.082,-58.915C20.065,-59.558 19.959,-60.198 19.896,-60.839C20.005,-60.872 20.114,-60.904 20.224,-60.937C27.44,-41.756 36.619,-23.464 45.395,-4.862C54.174,-23.43 63.326,-41.718 70.736,-60.818C70.825,-59.575 70.715,-58.393 70.66,-57.207C70.577,-55.452 70.534,-53.695 70.474,-51.939C70.354,-48.457 70.205,-44.975 70.122,-41.492C70.028,-37.549 69.956,-33.605 69.942,-29.662C69.914,-22.021 69.934,-14.381 69.934,-6.741L69.934,-5.651L90.744,-5.651L90.744,-96.028C83.966,-96.028 77.251,-96.032 70.537,-96.012C70.337,-96.011 70.046,-95.81 69.955,-95.624C69.512,-94.733 69.128,-93.811 68.713,-92.905C66.292,-87.624 63.869,-82.344 61.445,-77.064C59.854,-73.598 58.219,-70.151 56.676,-66.663C54.447,-61.626 52.197,-56.594 50.123,-51.492C48.826,-48.3 47.829,-44.987 46.712,-41.722C46.286,-40.477 45.904,-39.216 45.434,-37.752C45.278,-38.278 45.19,-38.581 45.1,-38.882C44.118,-42.159 43.37,-45.528 42.104,-48.692C39.548,-55.082 36.771,-61.386 33.973,-67.675C31.468,-73.306 28.806,-78.867 26.225,-84.464C25.476,-86.087 24.783,-87.736 24.036,-89.36C23.008,-91.593 21.952,-93.814 20.923,-96.006L0,-96.006ZM-3.6,-99.805L-2.653,-99.805C5.684,-99.805 14.02,-99.797 22.356,-99.821C23.002,-99.823 23.355,-99.673 23.633,-99.058C26.186,-93.419 28.767,-87.793 31.35,-82.168C32.868,-78.86 34.428,-75.572 35.925,-72.256C37.831,-68.034 39.712,-63.802 41.566,-59.558C42.926,-56.448 44.225,-53.311 45.564,-50.153C52.342,-66.974 60.335,-83.251 67.789,-99.777L94.339,-99.777L94.339,-2.062L66.425,-2.062L66.425,-40.728C59.49,-26.036 52.509,-11.245 45.4,3.817C38.267,-11.295 31.257,-26.146 24.317,-40.849L24.317,-2.045L-3.6,-2.045L-3.6,-99.805Z" style="fill:white;fill-rule:nonzero;stroke:white;stroke-width:2.88px;"/>
                </g>
            </g>
        </g>
    </g>
</svg>
