<svg xmlns="http://www.w3.org/2000/svg" version="1.1" xmlns:xlink="http://www.w3.org/1999/xlink" xmlns:svgjs="http://svgjs.dev/svgjs" viewBox="0 0 800 800" opacity="0.4"><defs><linearGradient x1="50%" y1="0%" x2="50%" y2="100%" id="uundulate-grad"><stop stop-color="hsl(340, 45%, 50%)" stop-opacity="1" offset="45%"></stop><stop stop-color="hsl(340, 45%, 80%)" stop-opacity="1" offset="100%"></stop></linearGradient></defs><g stroke-width="1" stroke="url(#uundulate-grad)" fill="none"><path d="M1536.6560225243074 -588.4146351532689C2030.8478470439268 0.3301143137503004 1758.976349515889 1426.9332054395513 1439.8459397122756 1824.460144257665C1120.7155299086626 2221.987083075778 499.0218799865834 1908.4594206406887 4.830055466964268 1319.714671173669C-489.3617690526547 730.96992170665 -1251.4052277855094 -603.9877143659123 -932.2748179818964 -1001.5146531840257C-613.1444081782832 -1399.041592002139 1042.4641980046886 -1177.1593846202882 1536.6560225243074 -588.4146351532689C2030.8478470439268 0.3301143137503004 1758.976349515889 1426.9332054395513 1439.8459397122756 1824.460144257665 "></path><path d="M1484.9898882329862 -543.4865640241429C1956.7184480017136 18.497060467102756 1697.2047458158595 1380.2545565417308 1392.580263730592 1759.71208904993C1087.9557816453248 2139.1696215581287 494.52093399243086 1839.8932165064525 22.792374223703973 1277.9095920152072C-448.93618554502336 715.9259675239609 -1176.3413052445667 -558.3517759998482 -871.7168231592996 -937.8093085080473C-567.0923410740324 -1317.2668410162464 1013.2613284642589 -1105.4701885153886 1484.9898882329862 -543.4865640241429C1956.7184480017136 18.497060467102756 1697.2047458158595 1380.2545565417308 1392.580263730592 1759.71208904993 "></path><path d="M1433.3237539416646 -498.55861496532964C1882.5890489595 36.663884550142484 1635.4331421158295 1333.5757855735978 1345.3145877489083 1694.9639117718825C1055.196033381987 2056.352037970167 490.0199879982788 1771.3268903019043 40.75469298044345 1236.1043907864318C-408.5106020373921 700.8818912709603 -1101.2773827036237 -512.7159597040966 -811.1588283367026 -874.1040859023813C-521.0402739697817 -1235.4922121006662 984.0584589238292 -1033.7811144808015 1433.3237539416646 -498.55861496532964C1882.5890489595 36.663884550142484 1635.4331421158295 1333.5757855735978 1345.3145877489083 1694.9639117718825 "></path><path d="M1381.657619650343 -453.63069642409437C1808.4596499172867 54.83067811560409 1573.6615384157994 1286.8969840878867 1298.0489117672246 1630.2157039762574C1022.4362851186497 1973.5344238646276 485.51904200412673 1702.7605335797775 58.71701173718293 1194.2991590400793C-368.08501852976076 685.8377845003806 -1026.2134601626808 -467.08017392592296 -750.6008335141058 -810.3988938142935C-474.98820686553086 -1153.717613702664 954.8555893833995 -962.0920709637928 1381.657619650343 -453.63069642409437C1808.4596499172867 54.83067811560409 1573.6615384157994 1286.8969840878867 1298.0489117672246 1630.2157039762574 "></path><path d="M1329.991302253553 -408.70283891801546C1734.3300677696047 72.99741064590944 1511.8897516103011 1240.2181215670194 1250.7830526800722 1565.4674351454755C989.6763537498432 1890.7167487239317 481.0179129045057 1634.194115822495 76.67914738845366 1152.4938662585705C-327.65961812759815 670.7936166946454 -951.1497207272066 -421.4444491829056 -690.0430217969777 -746.693762761362C-428.9363228667488 -1071.9430763398182 925.6525367375009 -890.4030884819402 1329.991302253553 -408.70283891801546C1734.3300677696047 72.99741064590944 1511.8897516103011 1240.2181215670194 1250.7830526800722 1565.4674351454755 "></path><path d="M1278.3250458919192 -363.7748288240459C1660.200546657079 91.16429576410542 1450.118025839959 1193.5394116340422 1203.517254628076 1500.7193189025847C956.9164834161932 1807.8992261711264 476.5168448400409 1565.6278506531025 94.64134407488064 1110.6887260649514C-287.2341566902794 655.7496014768003 -876.0859202565762 -375.8085718519976 -629.4851490446933 -682.9884791205398C-382.8843778328105 -990.1683863890818 896.4495451267587 -818.713953412197 1278.3250458919192 -363.7748288240459C1660.200546657079 91.16429576410542 1450.118025839959 1193.5394116340422 1203.517254628076 1500.7193189025847 "></path><path d="M1226.6589726357533 -318.84694080038867C1586.071208650022 109.3310588119889 1388.3464831750853 1146.860579630753 1156.2516396815486 1435.971080589381C924.1567961880119 1725.0815815480087 472.01595988104486 1497.0614634133985 112.60372386677659 1068.8834638010208C-246.8085121474918 640.705464188643 -801.0219366804771 -330.17281659140224 -568.9270931869403 -619.28331755003C-336.83224969340347 -908.3938185086579 867.2467366214853 -747.0249404127663 1226.6589726357533 -318.84694080038867C1586.071208650022 109.3310588119889 1388.3464831750853 1146.860579630753 1156.2516396815486 1435.971080589381 "></path><path d="M1174.9927773092759 -273.91905277673163C1511.9417485726522 127.49782185987237 1326.5748184398994 1100.1817476274637 1108.9859026647086 1371.2228422761777C891.3969868895178 1642.263936924891 467.51495285173655 1428.4950761736936 130.56598158836005 1027.0782015370896C-206.3829896750167 625.6613269004856 -725.9580751746904 -284.53706133080686 -508.36915939949967 -555.5781559795204C-290.7802436243089 -826.6192506282339 838.0438060458991 -675.3359274133356 1174.9927773092759 -273.91905277673163C1511.9417485726522 127.49782185987237 1326.5748184398994 1100.1817476274637 1108.9859026647086 1371.2228422761777 "></path><path d="M1123.326581982798 -228.9910426827621C1437.8122884952827 145.66470697806835 1264.8031537047136 1053.5030376944871 1061.7201656478687 1306.4747260332865C858.637177591024 1559.4464143720857 463.013945822428 1359.9288110043017 148.52823930994316 985.273061343471C-165.9574672025417 610.6173116826408 -650.8942136689037 -238.90118399989888 -447.81122561205905 -491.8728723386982C-244.72823755521438 -744.8445606774975 808.8408754703132 -603.6467923435924 1123.326581982798 -228.9910426827621C1437.8122884952827 145.66470697806835 1264.8031537047136 1053.5030376944871 1061.7201656478687 1306.4747260332865 "></path><path d="M1071.6604476914767 -184.06315465910484C1363.6828894530695 163.83147002595206 1203.0315500046836 1006.8242056911979 1014.454489666185 1241.7264877200828C825.8774293276863 1476.628769748968 458.5129998282757 1291.3624237645972 166.49055806668275 943.4677990795401C-125.53188369491033 595.5731743944832 -575.8302911279609 -193.2654287393034 -387.2532307894622 -428.1677107681885C-198.67617045096358 -663.0699927970736 779.6380059298835 -531.9577793441617 1071.6604476914767 -184.06315465910484C1363.6828894530695 163.83147002595206 1203.0315500046836 1006.8242056911979 1014.454489666185 1241.7264877200828 "></path><path d="M1019.9941913298426 -139.1352666354478C1289.5533683405438 181.9982330738353 1141.2598242343413 960.1453736879087 967.1886916141887 1176.9782494068795C793.1175589940362 1393.8111251258506 454.01193176381094 1222.7960365248923 184.45275475310973 901.6625368156092C-85.10642225759148 580.5290371063259 -500.76649065733045 -147.6296734787079 -326.69535803717787 -364.4625491976788C-152.62422541702517 -581.2954249166496 750.4350143191414 -460.268766344731 1019.9941913298426 -139.1352666354478C1289.5533683405438 181.9982330738353 1141.2598242343413 960.1453736879087 967.1886916141887 1176.9782494068795 "></path><path d="M968.3279960033647 -94.20731757663452C1215.4239082631743 200.16505715687515 1079.4881594991555 913.4666027197757 919.9229545973487 1112.2300721288325C760.3577496955422 1310.993541537889 449.5109247345026 1154.2297103203443 202.41501247469307 859.8573355868346C-44.68089978511648 565.484960853325 -425.7026291515438 -101.99385718295616 -266.13742424973725 -300.7573265920129C-106.57221934793074 -499.52079600106947 721.2320837435552 -388.579692310144 968.3279960033647 -94.20731757663452C1215.4239082631743 200.16505715687515 1079.4881594991555 913.4666027197757 919.9229545973487 1112.2300721288325 "></path><path d="M916.6618311944651 -49.27936851782101C1141.2944787033828 218.331881239915 1017.7165252815475 866.7878317516427 872.6572480980869 1047.481894850785C727.5979709146263 1228.1759579499274 445.0099482227722 1085.663384115796 220.37730071385454 818.0521343580597C-4.255346795063247 550.4408846003239 -350.638737128179 -56.35804088720454 -205.5794599447185 -237.05210398634688C-60.520182761257956 -417.74616708548933 692.0291836855474 -316.8906182755571 916.6618311944651 -49.27936851782101C1141.2944787033828 218.331881239915 1017.7165252815475 866.7878317516427 872.6572480980869 1047.481894850785 "></path><path d="M864.9956358679874 -4.3514194590077295C1067.1650186260133 236.49870532295472 955.9448605463615 820.1090607835097 825.391511081247 982.7337175727378C694.8381616161325 1145.3583743619658 440.5089411934638 1017.0970579112475 238.33955843543777 776.2469331292853C36.17017567741186 535.3968083473228 -275.57487562239237 -10.7222245914528 -145.0215261572779 -173.346881380681C-14.468176692163524 -335.97153816990914 662.8262531099613 -245.20154424097012 864.9956358679874 -4.3514194590077295C1067.1650186260133 236.49870532295472 955.9448605463615 820.1090607835097 825.391511081247 982.7337175727378 "></path><path d="M813.3294710590876 40.57652959980567C993.035589066222 254.66552940599445 894.1732263287536 773.4302898153765 778.1258045819852 917.9855402946905C662.0783828352169 1062.5407907740043 436.00796468173337 948.5307317066993 256.30184667459923 734.4417319005104C76.59572866746498 520.3527320943215 -200.5109835990276 34.913591704298824 -84.4635618522592 -109.641658775015C31.583859894509203 -254.19690925432894 633.6233530519535 -173.51247020638317 813.3294710590876 40.57652959980567C993.035589066222 254.66552940599445 894.1732263287536 773.4302898153765 778.1258045819852 917.9855402946905 "></path><path d="M761.663306250188 85.50447865861895C918.9061595064304 272.8323534890342 832.4015921111459 726.7515188472435 730.8600980827234 853.2373630166433C629.318604054301 979.7232071860428 431.50698817000307 879.9644055021508 274.2641349137607 692.6365306717355C117.02128165751822 505.3086558413204 -125.4470915756628 80.54940800005056 -23.90559754724046 -45.936436169349065C77.63589648118187 -172.42228033874875 604.4204529939457 -101.82339617179622 761.663306250188 85.50447865861895C918.9061595064304 272.8323534890342 832.4015921111459 726.7515188472435 730.8600980827234 853.2373630166433 "></path><path d="M709.9971719588666 130.4323666822761C844.7767604642172 290.99911653691765 770.6299884111158 680.0726868439542 683.5944221010396 788.4891247034398C596.5588557909634 896.9055625629253 427.0060421758508 811.3980182624462 292.2264536705002 650.8312684078046C157.44686516514957 490.26451855316293 -50.38316903471991 126.18516326064605 36.65239727535641 17.768725401160623C123.68796358543273 -90.6477124583248 575.217583453516 -30.134383172365517 709.9971719588666 130.4323666822761C844.7767604642172 290.99911653691765 770.6299884111158 680.0726868439542 683.5944221010396 788.4891247034398 "></path><path d="M658.3309155972325 175.3603157410895C770.6472393516915 309.1659406199575 708.8582626407738 633.3939158758213 636.3286240490435 723.7409474253925C563.7989854573132 814.0879789749638 422.5049741113861 742.831692057898 310.18865035692727 609.0260671790298C197.87232660246838 475.22044230016195 24.68063143591047 171.82097955639773 97.21027002764072 81.47394800682656C169.73990861937102 -8.873083542744666 546.0145918427737 41.554690862221435 658.3309155972325 175.3603157410895C770.6472393516915 309.1659406199575 708.8582626407738 633.3939158758213 636.3286240490435 723.7409474253925 "></path><path d="M606.6647507883329 220.28826479990283C696.5178097919 327.3327647029972 647.0866284231658 586.7151449076882 589.0629175497817 658.9927701473453C531.0392066763975 731.2703953870022 418.0039975996558 674.2653658533496 328.15093859608874 567.2208659502552C238.29787959252155 460.17636604716074 99.74452345927529 217.4567958521494 157.76823433265946 145.1791706124925C215.7919452060437 72.90154537283553 516.8116917847658 113.24376489680844 606.6647507883329 220.28826479990283C696.5178097919 327.3327647029972 647.0866284231658 586.7151449076882 589.0629175497817 658.9927701473453 "></path><path d="M554.998524944277 265.21618334113805C622.3883191969524 345.4995582684588 585.3149331704017 540.0363434219771 541.7971500153635 594.2445623517199C498.27936686032547 648.4527812814626 413.50296005276914 605.6990091312231 346.11316580009384 525.4156342039023C278.72337154741854 445.1322592765814 174.8083544474838 263.092581630323 218.32613760252195 208.8843627005803C261.8439207575601 154.6761437708376 487.60873069160175 184.93280841381727 554.998524944277 265.21618334113805C622.3883191969524 345.4995582684588 585.3149331704017 540.0363434219771 541.7971500153635 594.2445623517199 "></path><path d="M503.33237539416643 310.1441323999514C548.2589048959501 363.6663823514986 523.5433142115829 493.3575724538441 494.5314587748908 529.4963850736726C465.51960333819875 565.6351976935011 409.0019987998279 537.1326829266748 364.07546929804437 483.61043297512765C319.1489397962608 430.0881830235803 249.87226172963761 308.7283979260747 278.88411716632976 272.58958530624625C307.89597260302185 236.45077268641774 458.4058458923829 256.6218824484042 503.33237539416643 310.1441323999514C548.2589048959501 363.6663823514986 523.5433142115829 493.3575724538441 494.5314587748908 529.4963850736726 "></path><path d="M451.6661800676887 355.0720661999757C474.1294448185805 381.83319117574933 461.77164947639693 446.67878622692206 447.26572175805086 464.7481925368363C432.75979403970484 482.81759884675057 404.5009917705194 468.5663414633374 382.03772701962765 441.8052164875638C359.5744622687359 415.04409151179016 324.9361232354243 354.3641989630374 339.4420509537703 336.2947926531231C353.9479786721164 318.22538634320887 429.2029153167969 328.3109412242021 451.6661800676887 355.0720661999757C474.1294448185805 381.83319117574933 461.77164947639693 446.67878622692206 447.26572175805086 464.7481925368363 "></path></g></svg>