<?xml version="1.0" encoding="UTF-8" standalone="no"?>
<!DOCTYPE svg PUBLIC "-//W3C//DTD SVG 1.1//EN" "http://www.w3.org/Graphics/SVG/1.1/DTD/svg11.dtd">
<svg width="100%" height="100%" viewBox="0 0 91 90" version="1.1" xmlns="http://www.w3.org/2000/svg" xmlns:xlink="http://www.w3.org/1999/xlink" xml:space="preserve" xmlns:serif="http://www.serif.com/" style="fill-rule:evenodd;clip-rule:evenodd;stroke-linejoin:round;stroke-miterlimit:2;">
    <g transform="matrix(1,0,0,1,-9.9982,-15.0297)">
        <g transform="matrix(1,0,0,1,5,10)">
            <path d="M93.93,40.289C93.602,38.777 92.102,37.82 90.578,38.148C89.059,38.477 88.11,39.977 88.438,41.5C91.36,54.699 87.399,68.281 77.848,77.828C70.418,85.258 60.547,89.348 50.047,89.348C39.606,89.348 29.797,85.297 22.387,77.957L29.238,76.855C30.77,76.605 31.809,75.164 31.566,73.637C31.316,72.105 29.867,71.058 28.348,71.308L14.782,73.5C14.043,73.621 13.383,74.019 12.954,74.629C12.512,75.23 12.333,75.988 12.454,76.719L14.633,90.278C14.852,91.656 16.055,92.637 17.403,92.637C17.551,92.637 17.704,92.625 17.852,92.598C19.383,92.348 20.422,90.907 20.18,89.379L19.09,82.571C27.481,90.559 38.43,94.962 50.059,94.962C62.059,94.962 73.348,90.29 81.84,81.802C92.738,70.9 97.262,55.38 93.93,40.29L93.93,40.289ZM22.149,22.129C37.43,6.84 62.27,6.801 77.622,22L70.782,23.102C69.251,23.352 68.212,24.793 68.454,26.32C68.673,27.699 69.876,28.68 71.224,28.68C71.372,28.68 71.524,28.668 71.673,28.641L85.224,26.469C85.962,26.348 86.622,25.949 87.052,25.34C87.493,24.738 87.673,23.981 87.552,23.25L85.38,9.691C85.13,8.16 83.681,7.113 82.161,7.363C80.63,7.613 79.591,9.055 79.833,10.582L80.935,17.422C63.353,0.672 35.443,0.891 18.181,18.148C7.271,29.058 2.74,44.578 6.072,59.671C6.361,60.98 7.521,61.87 8.81,61.87C9.009,61.87 9.208,61.851 9.419,61.8C10.939,61.472 11.888,59.972 11.56,58.449C8.642,45.25 12.603,31.672 22.15,22.129L22.149,22.129ZM49.891,20.57C48.34,20.57 47.082,21.832 47.082,23.379L47.082,50.149C47.082,51.09 47.551,51.958 48.321,52.477L61.602,61.399C62.082,61.719 62.621,61.879 63.16,61.879C64.059,61.879 64.949,61.438 65.488,60.641C66.348,59.352 66.008,57.61 64.719,56.743L52.699,48.649L52.699,23.379C52.699,21.828 51.441,20.57 49.89,20.57L49.891,20.57Z" style="fill:white;fill-rule:nonzero;"/>
        </g>
    </g>
</svg>
