<?xml version="1.0" encoding="UTF-8" standalone="no"?>
<!DOCTYPE svg PUBLIC "-//W3C//DTD SVG 1.1//EN" "http://www.w3.org/Graphics/SVG/1.1/DTD/svg11.dtd">
<svg width="100%" height="100%" viewBox="0 0 730 97" version="1.1" xmlns="http://www.w3.org/2000/svg" xmlns:xlink="http://www.w3.org/1999/xlink" xml:space="preserve" xmlns:serif="http://www.serif.com/" style="fill-rule:evenodd;clip-rule:evenodd;stroke-linejoin:round;stroke-miterlimit:2;">
    <g transform="matrix(1,0,0,1,-1707.57,-1515.24)">
        <g transform="matrix(1,0,0,1,144.052,-738.58)">
            <g transform="matrix(1,0,0,1,0,-1.96352)">
                <g transform="matrix(0.305254,0,0,0.305254,1618.99,2139.52)">
                    <text x="384.321px" y="521.25px" style="font-family:'Sansation Regular', 'Sansation';font-size:200px;fill:rgb(149,64,252);">FüsioteraapiaKodus</text>
                </g>
                <g transform="matrix(1,0,0,1,432.848,-438.549)">
                    <g>
                        <g transform="matrix(0.167006,0,0,0.178187,1366.4,2696.96)">
                            <text x="384.321px" y="521.25px" style="font-family:'SairaCondensed-Regular', 'Saira Condensed';font-stretch:condensed;font-size:233.837px;fill:rgb(120,113,108);">20 AA<tspan x="873.273px 976.863px 1061.28px 1164.63px 1257.7px 1302.6px 1410.4px " y="521.25px 521.25px 521.25px 521.25px 521.25px 521.25px 521.25px ">STAT KO</tspan>GEMUST</text>
                        </g>
                        <g transform="matrix(0.817098,0,0,0.352128,343.844,1799.44)">
                            <rect x="1723.56" y="2775.05" width="86.269" height="4.727" style="fill:rgb(120,113,108);"/>
                        </g>
                        <g transform="matrix(0.826292,0,0,0.356091,-78.1355,1788.44)">
                            <rect x="1723.56" y="2775.05" width="86.269" height="4.727" style="fill:rgb(120,113,108);"/>
                        </g>
                    </g>
                </g>
            </g>
            <g transform="matrix(0.504954,0,0,0.504954,838.424,1008.33)">
                <g>
                    <g transform="matrix(1,0,0,1,-0.850966,1.52108)">
                        <g transform="matrix(0.710915,0.703278,-0.802654,0.811369,2500.84,-680.921)">
                            <ellipse cx="1663.58" cy="2484.97" rx="8.302" ry="49.071" style="fill:rgb(0,30,41);"/>
                        </g>
                        <g transform="matrix(1.4824,1.70106,-0.753899,0.65699,1067.77,-2030.23)">
                            <rect x="1692.27" y="2489.7" width="3.49" height="68.997" style="fill:rgb(0,30,41);"/>
                        </g>
                    </g>
                    <g transform="matrix(1,0,0,1,0.336089,2.5922)">
                        <g transform="matrix(-0.710915,0.703278,0.802654,0.811369,810.609,-680.921)">
                            <ellipse cx="1663.58" cy="2484.97" rx="8.302" ry="49.071" style="fill:rgb(0,30,41);"/>
                        </g>
                        <g transform="matrix(-1.4824,1.70106,0.753899,0.65699,2242.67,-2031.26)">
                            <rect x="1692.27" y="2489.7" width="3.49" height="68.997" style="fill:rgb(0,30,41);"/>
                        </g>
                    </g>
                    <g transform="matrix(1.09058,0,0,1.09058,9.49745,-183.152)">
                        <circle cx="1508.76" cy="2452.7" r="14.038" style="fill:rgb(0,30,41);"/>
                    </g>
                    <g transform="matrix(-1,0,0,1,3164.73,1.52108)">
                        <g transform="matrix(0.710915,0.703278,-0.802654,0.811369,2500.84,-680.921)">
                            <ellipse cx="1663.58" cy="2484.97" rx="8.302" ry="49.071" style="fill:rgb(0,30,41);"/>
                        </g>
                        <g transform="matrix(1.4824,1.70106,-0.753899,0.65699,1067.77,-2030.23)">
                            <rect x="1692.27" y="2489.7" width="3.49" height="68.997" style="fill:rgb(0,30,41);"/>
                        </g>
                    </g>
                    <g transform="matrix(-1,0,0,1,3163.55,2.5922)">
                        <g transform="matrix(-0.710915,0.703278,0.802654,0.811369,810.609,-680.921)">
                            <ellipse cx="1663.58" cy="2484.97" rx="8.302" ry="49.071" style="fill:rgb(0,30,41);"/>
                        </g>
                        <g transform="matrix(-1.4824,1.70106,0.753899,0.65699,2242.67,-2031.26)">
                            <rect x="1692.27" y="2489.7" width="3.49" height="68.997" style="fill:rgb(0,30,41);"/>
                        </g>
                    </g>
                    <g transform="matrix(-1.09058,0,0,1.09058,3154.39,-183.152)">
                        <circle cx="1508.76" cy="2452.7" r="14.038" style="fill:rgb(0,30,41);"/>
                    </g>
                    <g transform="matrix(1.06527,0,0,1,-98.7334,0)">
                        <rect x="1500.54" y="2530.98" width="15.8" height="125.777" style="fill:rgb(0,30,41);"/>
                    </g>
                    <g transform="matrix(1.06527,0,0,1,48.0598,0)">
                        <rect x="1500.54" y="2530.98" width="15.8" height="125.777" style="fill:rgb(0,30,41);"/>
                    </g>
                    <g transform="matrix(6.52288e-17,-1.06527,1.07094,6.55759e-17,-1197.6,4255.23)">
                        <rect x="1500.54" y="2530.98" width="15.8" height="125.777" style="fill:rgb(0,30,41);"/>
                    </g>
                </g>
                <g transform="matrix(1,0,0,1,0.162421,-15.5528)">
                    <g transform="matrix(1,0,0,1,40.8103,16.1393)">
                        <rect x="1541.54" y="2549.34" width="33.458" height="33.458" style="fill:rgb(149,64,252);"/>
                    </g>
                    <g transform="matrix(1,0,0,1,2.81031,16.1393)">
                        <rect x="1541.54" y="2549.34" width="33.458" height="33.458" style="fill:rgb(149,64,252);"/>
                    </g>
                    <g transform="matrix(1,0,0,1,40.8103,54.1393)">
                        <rect x="1541.54" y="2549.34" width="33.458" height="33.458" style="fill:rgb(149,64,252);"/>
                    </g>
                    <g transform="matrix(1,0,0,1,2.81031,54.1393)">
                        <rect x="1541.54" y="2549.34" width="33.458" height="33.458" style="fill:rgb(149,64,252);"/>
                    </g>
                </g>
            </g>
        </g>
    </g>
</svg>
