<svg xmlns="http://www.w3.org/2000/svg" viewBox="0 0 512 640" x="0px" y="0px"><g><path d="M474.731,428.849l-82.724-86.286L403.823,224.4a3.975,3.975,0,0,0-.016-.893h0l-8.728-69.832,9.269-31.571A23.459,23.459,0,0,0,381.8,92h-41.96V75.314a12.02,12.02,0,0,0,8-11.314V44.51a17.8,17.8,0,0,0-16.032-17.759l-35.56-3.65a4,4,0,0,0-4.408,3.979V42.89a17.139,17.139,0,0,0,12,16.329v12.7a16.012,16.012,0,0,0,12,15.473V92h-43.16c-.329,0-.658.011-1.01.023a23.654,23.654,0,0,0-21.237,15.911l-14.714,43.305v.006L228.532,172.4l-95.709,14.074a26.674,26.674,0,0,0-19.09,12.73l-12.346,20.583c-.042.07-.071.144-.112.215H70.9A20.023,20.023,0,0,0,50.94,238.788L35.851,487.758a4,4,0,0,0,3.75,4.235c.083,0,.164.007.246.007a4,4,0,0,0,3.988-3.758L47,436h87.986l-3.137,51.758a4,4,0,0,0,3.75,4.235c.083,0,.164.007.246.007a4,4,0,0,0,3.988-3.758L143,436h41.682l3.167,52.242A4,4,0,0,0,191.839,492c.082,0,.163,0,.246-.007a4,4,0,0,0,3.75-4.235L192.7,436h71.7l10.729,34.334-21.507,14.338A4,4,0,0,0,255.843,492h80a4,4,0,0,0,4-4,102.413,102.413,0,0,0-5.265-32.444L300.1,352.123,327.26,284h11.979l-7.818,55.438a44,44,0,0,0,10.29,34.929l74.816,86.5L411.169,487.2a4,4,0,0,0,6.739,3.635l56.754-56.383A4,4,0,0,0,474.731,428.849ZM395.312,220H306.69l51.028-8.079a34.16,34.16,0,0,0,27.312-24l4.4-14.985ZM276.746,238.789a19.922,19.922,0,0,0-6.019-13.1l12.951-2.05-6.817,17.041ZM197.573,220l14.149-2.239L210.5,219.79c-.041.068-.069.141-.108.21Zm19.437,4.843c.006-.03.011-.061.017-.092a2.723,2.723,0,0,1,.335-.842l5.63-9.38v0l6.719-11.208a18.744,18.744,0,0,1,13.4-8.931l29.727-4.372c.047-.007.093-.012.139-.021l68.253-10.037a4,4,0,0,0,3.206-2.67l6.6-19.408,31,11.815-4.687,15.967a26.13,26.13,0,0,1-20.888,18.358l-101.25,16.029a4,4,0,0,0-2.2,1.122l-6.04,6.04a2.719,2.719,0,0,1-1.912.789h-25.38a2.656,2.656,0,0,1-2.354-1.375A2.729,2.729,0,0,1,217.01,224.843Zm61.278-45.036.162,1.3-.568.084ZM299.843,42.89V31.512L331,34.709a9.822,9.822,0,0,1,8.846,9.8v8.176a12.03,12.03,0,0,0-7.744-.09,9.749,9.749,0,0,1-.256-2.226V48.58a4,4,0,0,0-5.682-3.629l-13.394,6.206a8.933,8.933,0,0,1-3.814.843A9.12,9.12,0,0,1,299.843,42.89Zm12,29.03V59.732a16.772,16.772,0,0,0,4.3-1.323l8.208-3.8a17.42,17.42,0,0,0,2.7,5.914,4,4,0,0,0,6.023.587A4,4,0,1,1,335.843,68a4,4,0,0,0-4,4v32a4,4,0,0,1-8,0V87.508c.273-.057.547-.111.816-.179a4,4,0,1,0-1.953-7.758,11.7,11.7,0,0,1-2.863.349A8.009,8.009,0,0,1,311.843,71.92Zm-53.834,38.591a15.59,15.59,0,0,1,13.98-10.493c.232-.009.462-.018.694-.018h43.16v4a12,12,0,1,0,24,0v-4H381.8a15.5,15.5,0,0,1,15.51,15.46,15.678,15.678,0,0,1-.638,4.393L384.3,162,353.615,150.3l7.145-21.013a4,4,0,0,0-7.574-2.576L337.652,172.4l-51.286,7.543L283.849,159.8c0-.034-.009-.067-.013-.1l-3.024-24.2a4,4,0,0,0-7.938.992L275.8,159.89,275.18,162l-30.691-11.7ZM120.6,203.315a18.7,18.7,0,0,1,13.389-8.927l98.131-14.43a4,4,0,0,0,3.2-2.671l6.594-19.406,31,11.815-3.75,12.774-27.214,4a26.712,26.712,0,0,0-19.1,12.731l-5.761,9.609-71,11.237a4,4,0,0,0-2.206,1.125l-6.017,6.027a2.756,2.756,0,0,1-1.923.8H110.553a2.65,2.65,0,0,1-2.352-1.374,2.7,2.7,0,0,1-.31-1.82v0a2.752,2.752,0,0,1,.351-.9ZM58.926,239.271A12.012,12.012,0,0,1,70.9,228h29.292a10.95,10.95,0,0,0,1.041,2.56,10.579,10.579,0,0,0,9.318,5.44h25.389a10.824,10.824,0,0,0,7.572-3.134l5.11-5.119,2.87-.454a19.868,19.868,0,0,0-4.553,11.5L144.2,284H56.215ZM139.837,356H51.851l3.879-64h87.985ZM47.486,428l3.88-64h87.986l-3.879,64Zm96,0,11.44-188.729a12.007,12.007,0,0,1,8.917-10.863,12.012,12.012,0,0,1,8.918,10.864L184.2,428Zm48.727,0L180.746,238.789A19.874,19.874,0,0,0,176.762,228h32.559a10.9,10.9,0,0,0,1.045,2.565A10.586,10.586,0,0,0,219.683,236h25.38a10.779,10.779,0,0,0,7.568-3.131l4.835-4.836a12.007,12.007,0,0,1,11.3,11.239l1.14,18.812-28.489,71.222a44.135,44.135,0,0,0-1.144,29.465L261.9,428Zm78.822-151.21L280.2,428h-9.915L247.9,356.385a36.109,36.109,0,0,1,.936-24.108ZM280.684,436l1.9,31.364L272.784,436Zm.37,40h2.054l.485,8H269.054Zm140.589-.149,2.875-14.132,25.721-25.554a4,4,0,1,0-5.638-5.676L421.06,453.876l-73.3-84.742a35.993,35.993,0,0,1-8.419-28.578l8.461-60A4,4,0,0,0,343.843,276H324.549a4,4,0,0,0-3.716,2.519l-28.706,72a4,4,0,0,0-.079,2.746l34.94,104.821A94.356,94.356,0,0,1,331.759,484H291.608l-.485-8h24.72a4,4,0,1,0,0-8H290.638L278,259.39,290.551,228H395.423L383.862,343.6a4,4,0,0,0,1.093,3.166l81.281,84.781Z"/></g><text x="0" y="527" fill="#000000" font-size="5px" font-weight="bold" font-family="'Helvetica Neue', Helvetica, Arial-Unicode, Arial, Sans-serif">Created by Chattapat</text><text x="0" y="532" fill="#000000" font-size="5px" font-weight="bold" font-family="'Helvetica Neue', Helvetica, Arial-Unicode, Arial, Sans-serif">from the Noun Project</text></svg>