<svg xmlns="http://www.w3.org/2000/svg" viewBox="0 0 100 125" x="0px" y="0px"><path d="M87.9 16.4l-2.4 12.8c-2.7 1.1-5.4 2.1-8.3 2.1-3.4 0-5-.2-8-1.3-2.2-.6-6.5-2-8.8-2-2.4 0-7.3 1.4-9.7 2.2-2.4.9-4.9 1.1-7.3 1.1-2.4 0-4.9-.4-7.2-1.1-3-.9-6.3-2.2-9.4-2.2-4.1 0-8 1.9-11.5 3.4l-3.2-15.1H5l11.3 52.3h67.6L95 16.4h-7.1zm-9.2 45.8H21.5l-5.8-27.5c3-1.8 7.5-3.4 11.1-3.4 2.5 0 6.6.9 9.1 1.9 2.4.8 4.8 1.4 7.3 1.4 2.3 0 5.6-.6 7.8-1.4 2.9-.9 6.4-1.9 9.4-1.9 2.4 0 4.4.6 6.7 1.3 2.7 1 6.4 2 9.4 2 2.9 0 5.7-1.2 8.4-2l-6.2 29.6z"/><path d="M58.2 38.2c-6 0-7.3 5.1-7.3 10.2s1.4 10.2 7.3 10.2c6 0 7.3-5.1 7.3-10.2s-1.3-10.2-7.3-10.2zm0 17.1c-2.9 0-3.5-2.2-3.5-6.9s.6-6.9 3.5-6.9 3.5 2.2 3.5 6.9-.6 6.9-3.5 6.9zM45.6 47.9c1.5-.9 2.4-2.5 2.4-4.4 0-3.3-3.6-5.3-6.7-5.3-4.3 0-6.5 1.8-7.2 6.1h3.8c.3-1.5 1.5-2.8 3.1-2.8 1.4 0 3.2 1 3.2 2.3 0 2.6-2.5 2.9-4.6 2.9v2.7c2.1 0 4.8.6 4.8 3.2 0 1.6-1.5 2.7-3.4 2.7-1 0-1.8-.3-2.4-.8-.5-.5-.8-1.4-.9-2.4h-3.8c.3 4.8 2.7 6.4 7.3 6.4 3.8 0 6.9-2 6.9-6 .1-2-.7-3.8-2.5-4.6zM37.5 74h25v12h-25z"/><text x="0" y="115" fill="#000000" font-size="5px" font-weight="bold" font-family="'Helvetica Neue', Helvetica, Arial-Unicode, Arial, Sans-serif">Created by Liane Kirschner</text><text x="0" y="120" fill="#000000" font-size="5px" font-weight="bold" font-family="'Helvetica Neue', Helvetica, Arial-Unicode, Arial, Sans-serif">from the Noun Project</text></svg>