<?xml version="1.0" encoding="UTF-8" standalone="no"?>
<!DOCTYPE svg PUBLIC "-//W3C//DTD SVG 1.1//EN" "http://www.w3.org/Graphics/SVG/1.1/DTD/svg11.dtd">
<svg width="100%" height="100%" viewBox="0 0 95 41" version="1.1" xmlns="http://www.w3.org/2000/svg" xmlns:xlink="http://www.w3.org/1999/xlink" xml:space="preserve" xmlns:serif="http://www.serif.com/" style="fill-rule:evenodd;clip-rule:evenodd;stroke-linejoin:round;stroke-miterlimit:2;">
    <g transform="matrix(1,0,0,1,-7.94113,-39.855)">
        <g transform="matrix(1,0,0,1,5,10)">
            <path d="M23.574,29.855L33.582,29.855C34.293,29.855 34.934,30.144 35.398,30.609C35.863,31.074 36.152,31.714 36.152,32.425L36.152,43.827L63.847,43.827L63.847,32.425C63.847,31.714 64.136,31.074 64.601,30.609C65.066,30.144 65.707,29.855 66.418,29.855L76.426,29.855C77.133,29.855 77.777,30.144 78.242,30.609L78.238,30.609C78.703,31.078 78.996,31.722 78.996,32.425L78.996,34.738L88.629,34.738C89.34,34.738 89.98,35.027 90.445,35.492C90.488,35.531 90.523,35.57 90.558,35.613C90.957,36.07 91.199,36.664 91.199,37.304L91.199,43.828L94.488,43.828C95.305,43.828 96.008,44.253 96.476,44.941L96.523,45.011C96.855,45.527 97.058,46.191 97.058,46.894L97.058,53.105C97.058,53.839 96.836,54.531 96.476,55.054L96.476,55.058C96.008,55.742 95.305,56.167 94.488,56.167L91.199,56.167L91.199,62.695C91.199,63.402 90.91,64.042 90.445,64.507C89.98,64.972 89.34,65.261 88.629,65.261L78.996,65.261L78.996,67.574C78.996,68.285 78.703,68.925 78.242,69.39C77.777,69.855 77.133,70.144 76.426,70.144L66.418,70.144C65.707,70.144 65.066,69.855 64.601,69.39C64.136,68.925 63.847,68.285 63.847,67.574L63.847,56.168L36.152,56.168L36.152,67.574C36.152,68.285 35.863,68.925 35.398,69.39C34.934,69.855 34.293,70.144 33.582,70.144L23.574,70.144C22.871,70.144 22.226,69.851 21.761,69.386L21.758,69.39C21.297,68.925 21.004,68.285 21.004,67.574L21.004,65.261L11.371,65.261C10.726,65.261 10.133,65.019 9.679,64.621C9.633,64.585 9.594,64.55 9.554,64.507C9.09,64.042 8.801,63.402 8.801,62.695L8.801,56.167L5.508,56.167C4.695,56.167 3.992,55.742 3.523,55.058L3.476,54.984C3.144,54.472 2.941,53.808 2.941,53.105L2.941,46.894C2.941,46.16 3.164,45.464 3.523,44.941C3.992,44.253 4.695,43.828 5.508,43.828L8.801,43.828L8.801,37.304C8.801,36.605 9.09,35.96 9.554,35.496L9.558,35.492C10.027,35.027 10.668,34.738 11.371,34.738L21.004,34.738L21.004,32.425C21.004,31.722 21.297,31.082 21.758,30.613L21.765,30.609C22.23,30.144 22.875,29.855 23.574,29.855L23.574,29.855ZM33.211,32.796L23.945,32.796L23.945,67.202L33.211,67.202L33.211,32.796ZM36.152,46.769L36.152,53.226L63.847,53.226L63.847,46.769L36.152,46.769ZM21.004,62.32L21.004,37.679L11.742,37.679L11.742,62.32L21.004,62.32ZM8.801,53.227L8.801,46.77L5.887,46.77L5.883,46.895L5.883,53.106L5.887,53.227L8.801,53.227ZM76.055,32.797L66.79,32.797L66.79,67.203L76.055,67.203L76.055,32.797ZM78.997,37.679L78.997,62.32L88.258,62.32L88.258,37.679L78.997,37.679ZM91.2,46.769L91.2,53.226L94.11,53.226L94.118,53.105L94.118,46.894C94.118,46.851 94.114,46.808 94.11,46.769L91.2,46.769Z" style="fill:white;fill-rule:nonzero;"/>
        </g>
        <path d="M15.025,56.825C15.025,56.151 14.478,55.605 13.805,55.605L11.365,55.605C10.691,55.605 10.145,56.151 10.145,56.825L10.145,63.08C10.145,63.753 10.691,64.3 11.365,64.3L13.805,64.3C14.478,64.3 15.025,63.753 15.025,63.08L15.025,56.825Z" style="fill:white;fill-opacity:0.3;"/>
        <g transform="matrix(1.06557,0,0,1.08389,-1.75905,-5.29604)">
            <path d="M26.826,49.925C26.826,48.456 25.613,47.264 24.119,47.264L18.707,47.264C17.213,47.264 16.001,48.456 16.001,49.925L16.001,71.045C16.001,72.513 17.213,73.705 18.707,73.705L24.119,73.705C25.613,73.705 26.826,72.513 26.826,71.045L26.826,49.925Z" style="fill:white;fill-opacity:0.3;"/>
        </g>
        <path d="M39.336,44.824C39.336,43.232 38.044,41.94 36.453,41.94L30.685,41.94C29.094,41.94 27.802,43.232 27.802,44.824L27.802,75.081C27.802,76.672 29.094,77.964 30.685,77.964L36.453,77.964C38.044,77.964 39.336,76.672 39.336,75.081L39.336,44.824Z" style="fill:white;fill-opacity:0.3;"/>
        <path d="M71.634,57.934C71.634,56.746 70.67,55.782 69.482,55.782L42.642,55.782C41.454,55.782 40.49,56.746 40.49,57.934L40.49,62.237C40.49,63.425 41.454,64.389 42.642,64.389L69.482,64.389C70.67,64.389 71.634,63.425 71.634,62.237L71.634,57.934Z" style="fill:white;fill-opacity:0.3;"/>
        <path d="M82.725,44.846C82.725,43.144 81.343,41.763 79.642,41.763L73.475,41.763C71.773,41.763 70.392,43.144 70.392,44.846L70.392,75.502C70.392,77.204 71.773,78.585 73.475,78.585L79.642,78.585C81.343,78.585 82.725,77.204 82.725,75.502L82.725,44.846Z" style="fill:white;fill-opacity:0.3;"/>
        <path d="M94.348,48.994C94.348,47.501 93.136,46.288 91.642,46.288L86.23,46.288C84.736,46.288 83.524,47.501 83.524,48.994L83.524,70.733C83.524,72.227 84.736,73.439 86.23,73.439L91.642,73.439C93.136,73.439 94.348,72.227 94.348,70.733L94.348,48.994Z" style="fill:white;fill-opacity:0.3;"/>
        <path d="M100.293,56.936C100.293,56.201 99.697,55.605 98.962,55.605L96.301,55.605C95.566,55.605 94.97,56.201 94.97,56.936L94.97,63.147C94.97,63.881 95.566,64.478 96.301,64.478L98.962,64.478C99.697,64.478 100.293,63.881 100.293,63.147L100.293,56.936Z" style="fill:white;fill-opacity:0.3;"/>
    </g>
</svg>
