<?xml version="1.0" encoding="UTF-8" standalone="no"?>
<!DOCTYPE svg PUBLIC "-//W3C//DTD SVG 1.1//EN" "http://www.w3.org/Graphics/SVG/1.1/DTD/svg11.dtd">
<svg width="100%" height="100%" viewBox="0 0 39 56" version="1.1" xmlns="http://www.w3.org/2000/svg" xmlns:xlink="http://www.w3.org/1999/xlink" xml:space="preserve" xmlns:serif="http://www.serif.com/" style="fill-rule:evenodd;clip-rule:evenodd;stroke-linejoin:round;stroke-miterlimit:2;">
    <g transform="matrix(1,0,0,1,-12.8671,-4)">
        <g>
            <path d="M32,4C36.998,4 41.049,8.016 41.049,12.968C41.049,13.868 40.915,14.736 40.667,15.556L45.755,10.466C47.202,9.02 49.09,8.99 50.282,10.182C51.431,11.332 51.445,13.129 50.147,14.553L49.998,14.71L39.999,24.707L39.996,39.438L42.072,56.047C42.334,58.146 40.697,60 38.582,60C36.914,60 35.485,58.83 35.142,57.214L35.107,57.026L33.234,45.036C33.141,44.44 32.627,44 32.023,44C31.446,44 30.954,44.401 30.828,44.953L30.807,45.073L29.324,56.934C29.106,58.683 27.603,60 25.835,60C23.824,60 22.226,58.317 22.319,56.338L22.332,56.151L24,39.5L23.999,24.706L14.002,14.71C12.556,13.263 12.526,11.375 13.718,10.182C14.867,9.033 16.664,9.019 18.088,10.317L18.245,10.466L23.333,15.556C23.085,14.736 22.951,13.868 22.951,12.968C22.951,8.016 27.002,4 32,4ZM46.602,11.041L46.463,11.174L39.086,18.549C37.427,20.613 34.87,21.937 32,21.937C29.13,21.937 26.572,20.613 24.914,18.547L24.892,18.529L17.537,11.174C16.476,10.112 15.222,10.093 14.425,10.89C13.663,11.652 13.648,12.833 14.577,13.863L14.71,14.002L24.854,24.146L24.891,24.188L24.933,24.25L24.962,24.309L24.983,24.372L24.998,24.458L25,24.5L24.998,39.55L23.328,56.251C23.18,57.719 24.351,59 25.835,59C27.045,59 28.083,58.137 28.306,56.971L28.332,56.81L29.815,44.949C29.954,43.836 30.901,43 32.023,43C33.065,43 33.959,43.721 34.191,44.722L34.222,44.882L36.095,56.872C36.287,58.097 37.342,59 38.582,59C40.042,59 41.183,57.766 41.095,56.331L41.08,56.171L39,39.5L39.002,24.458L39.013,24.387L39.038,24.309L39.089,24.216L39.135,24.159L49.29,14.002C50.352,12.941 50.371,11.686 49.575,10.89C48.813,10.127 47.632,10.112 46.602,11.041ZM32,5C27.552,5 23.951,8.57 23.951,12.968C23.951,17.367 27.552,20.937 32,20.937C36.448,20.937 40.049,17.367 40.049,12.968C40.049,8.57 36.448,5 32,5Z" style="fill:white;fill-rule:nonzero;"/>
        </g>
    </g>
</svg>
