<?xml version="1.0" encoding="UTF-8" standalone="no"?>
<!DOCTYPE svg PUBLIC "-//W3C//DTD SVG 1.1//EN" "http://www.w3.org/Graphics/SVG/1.1/DTD/svg11.dtd">
<svg width="100%" height="100%" viewBox="0 0 25 24" version="1.1" xmlns="http://www.w3.org/2000/svg" xmlns:xlink="http://www.w3.org/1999/xlink" xml:space="preserve" xmlns:serif="http://www.serif.com/" style="fill-rule:evenodd;clip-rule:evenodd;stroke-linejoin:round;stroke-miterlimit:2;">
    <g transform="matrix(1,0,0,1,0.000445175,0)">
        <g>
            <g>
                <path d="M23.854,11.146L21,8.292L21,0.5C21,0.224 20.776,0 20.5,0L16.5,0C16.224,0 16,0.224 16,0.5L16,3.293L13.206,0.5C12.563,-0.143 11.439,-0.145 10.793,0.5L0.146,11.146C0.003,11.289 -0.04,11.504 0.038,11.691C0.115,11.878 0.299,12 0.5,12L3,12L3,23.5C3,23.776 3.224,24 3.5,24L20.5,24C20.776,24 21,23.776 20.999,23.5L20.999,12L23.499,12C23.701,12 23.884,11.878 23.961,11.691C24.039,11.504 23.997,11.289 23.854,11.146ZM20.5,11C20.224,11 20,11.224 20,11.5L20,23L4.002,23L4.002,11.5C4.002,11.224 3.778,11 3.502,11L1.708,11L11.501,1.207C11.765,0.944 12.235,0.942 12.5,1.207L16.147,4.854C16.291,4.997 16.505,5.041 16.692,4.962C16.879,4.885 17.001,4.702 17.001,4.5L17.001,1L20.001,1L20.001,8.5C20.001,8.633 20.053,8.76 20.147,8.854L22.294,11L20.5,11ZM13.523,11C12.964,11 12.432,11.2 12.001,11.561C11.57,11.199 11.037,11 10.479,11C9.112,11 8,12.196 8,13.667C8,14.323 8.239,14.962 8.692,15.516C9.394,16.374 11.539,18.737 11.63,18.837C11.726,18.94 11.859,19 12,19C12.141,19 12.275,18.94 12.37,18.836C12.461,18.736 14.606,16.372 15.308,15.515C15.761,14.961 16,14.323 16,13.667C16,12.195 14.888,11 13.523,11ZM14.534,14.883C14.022,15.51 12.662,17.024 12.001,17.756C11.341,17.024 9.981,15.509 9.468,14.883C9.255,14.623 9,14.201 9,13.667C9,12.748 9.664,12 10.479,12C10.911,12 11.32,12.213 11.602,12.585C11.792,12.834 12.21,12.834 12.399,12.585C12.682,12.214 13.091,12 13.523,12C14.338,12 15,12.748 15,13.667C15,14.201 14.747,14.623 14.534,14.883Z" style="fill:white;fill-rule:nonzero;"/>
            </g>
        </g>
    </g>
</svg>
